<svg width="256" height="256" viewBox="0 0 256 256" xmlns="http://www.w3.org/2000/svg">
  <!-- Background panel -->
  <rect x="32" y="32" width="192" height="192" rx="8" ry="8" fill="#2c3e50" stroke="#34495e" stroke-width="2"/>
  
  <!-- Panel door frame -->
  <rect x="40" y="40" width="176" height="176" rx="4" ry="4" fill="#34495e" stroke="#4a5f7a" stroke-width="1"/>
  
  <!-- Main bus bars -->
  <rect x="48" y="56" width="8" height="144" fill="#e74c3c" rx="2"/>
  <rect x="200" y="56" width="8" height="144" fill="#e74c3c" rx="2"/>
  
  <!-- Circuit breakers - left side -->
  <g fill="#95a5a6" stroke="#7f8c8d" stroke-width="1">
    <!-- Row 1 -->
    <rect x="64" y="64" width="32" height="16" rx="2"/>
    <rect x="64" y="88" width="32" height="16" rx="2"/>
    <rect x="64" y="112" width="32" height="16" rx="2"/>
    <rect x="64" y="136" width="32" height="16" rx="2"/>
    <rect x="64" y="160" width="32" height="16" rx="2"/>
    <rect x="64" y="184" width="32" height="16" rx="2"/>
  </g>
  
  <!-- Circuit breakers - right side -->
  <g fill="#95a5a6" stroke="#7f8c8d" stroke-width="1">
    <!-- Row 2 -->
    <rect x="160" y="64" width="32" height="16" rx="2"/>
    <rect x="160" y="88" width="32" height="16" rx="2"/>
    <rect x="160" y="112" width="32" height="16" rx="2"/>
    <rect x="160" y="136" width="32" height="16" rx="2"/>
    <rect x="160" y="160" width="32" height="16" rx="2"/>
    <rect x="160" y="184" width="32" height="16" rx="2"/>
  </g>
  
  <!-- Double pole breaker (spans two positions) -->
  <rect x="64" y="136" width="32" height="40" rx="2" fill="#3498db" stroke="#2980b9" stroke-width="1"/>
  
  <!-- Critical breaker indicator -->
  <rect x="160" y="64" width="32" height="16" rx="2" fill="#e67e22" stroke="#d35400" stroke-width="1"/>
  
  <!-- Breaker labels/numbers -->
  <g fill="#ecf0f1" font-family="Arial, sans-serif" font-size="8" text-anchor="middle">
    <!-- Left side numbers (odd) -->
    <text x="80" y="75">1</text>
    <text x="80" y="99">3</text>
    <text x="80" y="123">5</text>
    <text x="80" y="147">7</text>
    <text x="80" y="171">11</text>
    <text x="80" y="195">13</text>
    
    <!-- Right side numbers (even) -->
    <text x="176" y="75">2</text>
    <text x="176" y="99">4</text>
    <text x="176" y="123">6</text>
    <text x="176" y="147">8</text>
    <text x="176" y="171">12</text>
    <text x="176" y="195">14</text>
  </g>
  
  <!-- Center divider -->
  <rect x="124" y="56" width="8" height="144" fill="#2c3e50"/>
  
  <!-- Main breaker at top -->
  <rect x="100" y="56" width="56" height="24" rx="4" fill="#27ae60" stroke="#229954" stroke-width="2"/>
  <text x="128" y="71" fill="white" font-family="Arial, sans-serif" font-size="10" text-anchor="middle" font-weight="bold">MAIN</text>
  
  <!-- Panel label -->
  <rect x="60" y="216" width="136" height="20" fill="#2c3e50" stroke="#34495e" stroke-width="1"/>
  <text x="128" y="229" fill="#ecf0f1" font-family="Arial, sans-serif" font-size="10" text-anchor="middle">ELECTRICAL PANEL</text>
</svg>